<!-- 🧠 认知黑匣子 - SVG图标集 -->
<svg xmlns="http://www.w3.org/2000/svg" xmlns:xlink="http://www.w3.org/1999/xlink" style="display: none;">
  
  <!-- Logo图标 - 大脑与黑匣子结合 -->
  <symbol id="brain-box-logo" viewBox="0 0 100 100">
    <defs>
      <linearGradient id="brainGradient" x1="0%" y1="0%" x2="100%" y2="100%">
        <stop offset="0%" style="stop-color:#667eea;stop-opacity:1" />
        <stop offset="100%" style="stop-color:#764ba2;stop-opacity:1" />
      </linearGradient>
      <filter id="shadow" x="-20%" y="-20%" width="140%" height="140%">
        <feDropShadow dx="2" dy="2" stdDeviation="3" flood-color="#000" flood-opacity="0.2"/>
      </filter>
    </defs>
    
    <!-- 黑匣子外框 -->
    <rect x="10" y="15" width="80" height="70" rx="8" ry="8" 
          fill="none" stroke="url(#brainGradient)" stroke-width="3" filter="url(#shadow)"/>
    
    <!-- 大脑图形 -->
    <path d="M25 35 C20 30, 15 35, 20 45 C15 50, 25 55, 30 50 
             C35 55, 45 55, 50 50 C60 55, 70 50, 65 45 
             C75 35, 70 30, 65 35 C60 25, 50 25, 45 30 
             C40 25, 30 25, 25 35 Z" 
          fill="url(#brainGradient)" opacity="0.9"/>
    
    <!-- 大脑褶皱 -->
    <path d="M30 40 Q40 35 50 40 M35 45 Q45 40 55 45 M40 50 Q50 45 60 50" 
          stroke="#ffffff" stroke-width="2" fill="none" opacity="0.8"/>
    
    <!-- 黑匣子指示灯 -->
    <circle cx="75" cy="25" r="3" fill="#ff6b6b">
      <animate attributeName="opacity" values="1;0.3;1" dur="2s" repeatCount="indefinite"/>
    </circle>
    <circle cx="85" cy="25" r="3" fill="#4ecdc4"/>
    
    <!-- 中心文字 -->
    <text x="50" y="75" text-anchor="middle" fill="url(#brainGradient)" font-size="8" font-weight="bold">认知黑匣子</text>
  </symbol>
  
  <!-- 简化Logo（用于小尺寸） -->
  <symbol id="brain-logo-simple" viewBox="0 0 50 50">
    <defs>
      <linearGradient id="simpleGradient" x1="0%" y1="0%" x2="100%" y2="100%">
        <stop offset="0%" style="stop-color:#667eea;stop-opacity:1" />
        <stop offset="100%" style="stop-color:#764ba2;stop-opacity:1" />
      </linearGradient>
    </defs>
    <circle cx="25" cy="25" r="20" fill="url(#simpleGradient)"/>
    <path d="M15 20 C12 18, 10 20, 12 25 C10 28, 15 30, 18 28 
             C20 30, 30 30, 32 28 C35 30, 40 28, 38 25 
             C40 20, 38 18, 35 20 C32 15, 30 15, 28 18 
             C25 15, 20 15, 15 20 Z" 
          fill="#ffffff" opacity="0.9"/>
    <path d="M18 22 Q25 20 32 22 M20 25 Q25 23 30 25" 
          stroke="#667eea" stroke-width="1.5" fill="none"/>
  </symbol>
  
  <!-- 药方图标 -->
  <symbol id="prescription-icon" viewBox="0 0 24 24">
    <rect x="3" y="3" width="18" height="18" rx="2" ry="2" fill="currentColor" opacity="0.1"/>
    <path d="M19 3H5c-1.1 0-2 .9-2 2v14c0 1.1.9 2 2 2h14c1.1 0 2-.9 2-2V5c0-1.1-.9-2-2-2zm0 16H5V5h14v14z" 
          fill="currentColor"/>
    <circle cx="12" cy="12" r="6" fill="none" stroke="currentColor" stroke-width="1.5"/>
    <path d="M9 12h6M12 9v6" stroke="currentColor" stroke-width="1.5" stroke-linecap="round"/>
  </symbol>
  
  <!-- 诊断图标 -->
  <symbol id="diagnosis-icon" viewBox="0 0 24 24">
    <circle cx="12" cy="12" r="10" fill="currentColor" opacity="0.1"/>
    <path d="M12 2C6.48 2 2 6.48 2 12s4.48 10 10 10 10-4.48 10-10S17.52 2 12 2zm-2 15l-5-5 1.41-1.41L10 14.17l7.59-7.59L19 8l-9 9z" 
          fill="currentColor"/>
  </symbol>
  
  <!-- 团队图标 -->
  <symbol id="team-icon" viewBox="0 0 24 24">
    <circle cx="9" cy="8" r="4" fill="currentColor" opacity="0.2"/>
    <circle cx="15" cy="8" r="4" fill="currentColor" opacity="0.2"/>
    <path d="M16.5 14c1.38 0 2.5 1.12 2.5 2.5V20H5v-3.5c0-1.38 1.12-2.5 2.5-2.5h9z" fill="currentColor"/>
    <circle cx="9" cy="8" r="3" fill="none" stroke="currentColor" stroke-width="1.5"/>
    <circle cx="15" cy="8" r="3" fill="none" stroke="currentColor" stroke-width="1.5"/>
  </symbol>
  
  <!-- Kevin案例特殊图标 -->
  <symbol id="kevin-icon" viewBox="0 0 24 24">
    <defs>
      <linearGradient id="kevinGradient" x1="0%" y1="0%" x2="100%" y2="100%">
        <stop offset="0%" style="stop-color:#dc2626;stop-opacity:1" />
        <stop offset="100%" style="stop-color:#991b1b;stop-opacity:1" />
      </linearGradient>
    </defs>
    <path d="M12 2l3.09 6.26L22 9.27l-5 4.87 1.18 6.88L12 17.77l-6.18 3.25L7 14.14 2 9.27l6.91-1.01L12 2z" 
          fill="url(#kevinGradient)"/>
    <text x="12" y="15" text-anchor="middle" fill="white" font-size="8" font-weight="bold">K</text>
    <circle cx="18" cy="6" r="3" fill="#ff6b6b">
      <animate attributeName="r" values="3;5;3" dur="1.5s" repeatCount="indefinite"/>
    </circle>
  </symbol>
  
  <!-- 测试图标 -->
  <symbol id="test-icon" viewBox="0 0 24 24">
    <rect x="3" y="3" width="18" height="18" rx="2" ry="2" fill="currentColor" opacity="0.1"/>
    <path d="M19 3H5c-1.1 0-2 .9-2 2v14c0 1.1.9 2 2 2h14c1.1 0 2-.9 2-2V5c0-1.1-.9-2-2-2zm-5 14H7v-2h7v2zm3-4H7v-2h10v2zm0-4H7V7h10v2z" 
          fill="currentColor"/>
    <circle cx="18" cy="6" r="4" fill="#10b981"/>
    <path d="M16 6l1.5 1.5L20 5" stroke="white" stroke-width="1.5" fill="none" stroke-linecap="round"/>
  </symbol>
  
  <!-- 进度图标 -->
  <symbol id="progress-icon" viewBox="0 0 24 24">
    <circle cx="12" cy="12" r="10" fill="none" stroke="currentColor" stroke-width="2" opacity="0.3"/>
    <path d="M12 2 A10 10 0 0 1 22 12" fill="none" stroke="currentColor" stroke-width="3" stroke-linecap="round">
      <animateTransform attributeName="transform" type="rotate" values="0 12 12;360 12 12" dur="2s" repeatCount="indefinite"/>
    </path>
  </symbol>
  
  <!-- 成功图标 -->
  <symbol id="success-icon" viewBox="0 0 24 24">
    <circle cx="12" cy="12" r="10" fill="#10b981"/>
    <path d="M9 12l2 2 4-4" stroke="white" stroke-width="2" fill="none" stroke-linecap="round" stroke-linejoin="round"/>
  </symbol>
  
  <!-- 警告图标 -->
  <symbol id="warning-icon" viewBox="0 0 24 24">
    <path d="M1 21h22L12 2 1 21zm12-3h-2v-2h2v2zm0-4h-2v-4h2v4z" fill="#f59e0b"/>
  </symbol>
  
  <!-- 错误图标 -->
  <symbol id="error-icon" viewBox="0 0 24 24">
    <circle cx="12" cy="12" r="10" fill="#ef4444"/>
    <path d="M15 9l-6 6M9 9l6 6" stroke="white" stroke-width="2" stroke-linecap="round"/>
  </symbol>
  
  <!-- Gemini图标 -->
  <symbol id="gemini-icon" viewBox="0 0 24 24">
    <defs>
      <linearGradient id="geminiGradient" x1="0%" y1="0%" x2="100%" y2="100%">
        <stop offset="0%" style="stop-color:#4285f4;stop-opacity:1" />
        <stop offset="25%" style="stop-color:#ea4335;stop-opacity:1" />
        <stop offset="50%" style="stop-color:#fbbc04;stop-opacity:1" />
        <stop offset="75%" style="stop-color:#34a853;stop-opacity:1" />
        <stop offset="100%" style="stop-color:#4285f4;stop-opacity:1" />
      </linearGradient>
    </defs>
    <path d="M12 2L2 7v10l10 5 10-5V7l-10-5z" fill="url(#geminiGradient)"/>
    <path d="M8 9l4 3 4-3M8 15l4-3 4 3" stroke="white" stroke-width="1.5" fill="none" stroke-linecap="round"/>
    <circle cx="12" cy="12" r="2" fill="white"/>
  </symbol>

</svg>
